# xmcd
#
# Track frame offsets: 
#        150
#        14573
#        25653
#        42955
#        59970
#        85953
#        97795
#        114290
#        135395
#        162633
#        174873
#        184308
#        198643
#        210245
#        226458
#
# Disc length: 3498 seconds
#
# Revision: 8
# Processed by: cddbd v1.5.2PL0 Copyright (c) Steve Scherf et al.
# Submitted via: ExactAudioCopyFreeDBPlugin 1.0
#
DISCID=c60da80f
DTITLE=Various Artist - L'âme du gospel
DYEAR=1994
DGENRE=Gospel
TTITLE0=The Edwin Hawkins Singers - Oh Happy Day
TTITLE1=Marion Williams - He's Got The Whole World In His Hands
TTITLE2=Alex Bradford - How Many Times
TTITLE3=Mahalia Jackson - Nobody Knows The Trouble I've Seen
TTITLE4=The Abyssinian Baptist Gospel Choir - Said I Wasn't Gonna Tell
TTITLE4=Nobody
TTITLE5=The Golden Gate Quartet - Shadrack
TTITLE6=Louis Armstrong - Go Down Moses
TTITLE7=Marion Williams - Didn't It Rain
TTITLE8=Bessie Griffin - Old Ship Of Zion
TTITLE9=The Staple Singers - Pray On
TTITLE10=Mahalia Jackson - Joshua Fit The Battle Of Jericho
TTITLE11=The Golden Gate Quartet - Hush !
TTITLE12=Dorothy Love Coates and The Original Gospel Harmonettes - That'
TTITLE12=s Enough
TTITLE13=The Abyssinian Baptist Gospel Choir - I Want To Ride That Glo
TTITLE13=ry Train
TTITLE14=Liz Mc Comb - I've Been Bucked
EXTD=YEAR: 1994
EXTT0=
EXTT1=
EXTT2=
EXTT3=
EXTT4=
EXTT5=
EXTT6=
EXTT7=
EXTT8=
EXTT9=
EXTT10=
EXTT11=
EXTT12=
EXTT13=
EXTT14=
PLAYORDER=
